<svg width="19" height="30" viewBox="0 0 19 30" fill="none" xmlns="http://www.w3.org/2000/svg">
<path d="M4.84 19.36C4.84 17.8933 5.12 16.6267 5.68 15.56C6.24 14.4933 7.12 13.5333 8.32 12.68C8.50667 12.52 8.68 12.3867 8.84 12.28C9.02667 12.1733 9.2 12.0667 9.36 11.96C10.4 11.2667 11.1333 10.68 11.56 10.2C12.0133 9.72 12.24 9.12 12.24 8.4C12.24 7.46667 11.8667 6.76 11.12 6.28C10.3733 5.77333 9.25333 5.52 7.76 5.52C6.50667 5.52 5.22667 5.66667 3.92 5.96C2.61333 6.25333 1.4 6.68 0.28 7.24V2.08C2.70667 0.986665 5.34667 0.439998 8.2 0.439998C11.4 0.439998 13.92 1.12 15.76 2.48C17.6267 3.81333 18.56 5.69333 18.56 8.12C18.56 9.08 18.3867 9.92 18.04 10.64C17.72 11.3333 17.28 11.9467 16.72 12.48C16.16 13.0133 15.36 13.6533 14.32 14.4C13.2533 15.2 12.5067 15.8 12.08 16.2C11.6533 16.5733 11.32 17.0133 11.08 17.52C10.8667 18 10.76 18.6267 10.76 19.4V20.24H4.84V19.36ZM7.76 29.6C6.82667 29.6 6.04 29.2933 5.4 28.68C4.78667 28.0667 4.48 27.2933 4.48 26.36C4.48 25.4267 4.78667 24.6533 5.4 24.04C6.04 23.4267 6.82667 23.12 7.76 23.12C8.66667 23.12 9.44 23.44 10.08 24.08C10.72 24.6933 11.04 25.4533 11.04 26.36C11.04 27.2667 10.72 28.04 10.08 28.68C9.44 29.2933 8.66667 29.6 7.76 29.6Z" fill="white"/>
</svg>
