<svg width="21" height="26" viewBox="0 0 21 26" fill="none" xmlns="http://www.w3.org/2000/svg">
<path fill-rule="evenodd" clip-rule="evenodd" d="M5.14184 22.97L2.19684 24.47C2.08237 24.5269 1.94649 24.5202 1.83826 24.4521C1.73003 24.384 1.66507 24.2645 1.66684 24.1366V2.92498C1.64917 2.06398 2.33252 1.35153 3.19351 1.33331H18.4718C19.3328 1.35153 20.0162 2.06398 19.9985 2.92498V24.1366C20.0003 24.2645 19.9353 24.384 19.8271 24.4521C19.7188 24.5202 19.583 24.5269 19.4685 24.47L16.5235 22.97C16.4062 22.9101 16.2656 22.9191 16.1568 22.9933L13.7868 24.6033C13.6641 24.6867 13.5029 24.6867 13.3802 24.6033L11.0368 23.0116C10.9141 22.9282 10.7529 22.9282 10.6302 23.0116L8.28684 24.6033C8.16412 24.6867 8.00289 24.6867 7.88017 24.6033L5.50851 23C5.40101 22.9236 5.26033 22.9121 5.14184 22.97Z" stroke="white" stroke-width="2" stroke-linecap="round" stroke-linejoin="round"/>
<path d="M5.83203 12C5.27975 12 4.83203 12.4477 4.83203 13C4.83203 13.5522 5.27975 14 5.83203 14V12ZM15.832 14C16.3843 14 16.832 13.5522 16.832 13C16.832 12.4477 16.3843 12 15.832 12V14ZM7.4987 15.3333C6.94641 15.3333 6.4987 15.781 6.4987 16.3333C6.4987 16.8856 6.94641 17.3333 7.4987 17.3333V15.3333ZM14.1654 17.3333C14.7177 17.3333 15.1654 16.8856 15.1654 16.3333C15.1654 15.781 14.7177 15.3333 14.1654 15.3333V17.3333ZM7.4987 8.66663C6.94641 8.66663 6.4987 9.11434 6.4987 9.66663C6.4987 10.2189 6.94641 10.6666 7.4987 10.6666V8.66663ZM14.1654 10.6666C14.7177 10.6666 15.1654 10.2189 15.1654 9.66663C15.1654 9.11434 14.7177 8.66663 14.1654 8.66663V10.6666ZM5.83203 14H15.832V12H5.83203V14ZM7.4987 17.3333H14.1654V15.3333H7.4987V17.3333ZM7.4987 10.6666H14.1654V8.66663H7.4987V10.6666Z" fill="white"/>
</svg>
