<svg width="25" height="19" viewBox="0 0 25 19" fill="none" xmlns="http://www.w3.org/2000/svg">
<path d="M23.9791 9.78345C24.5314 9.78345 24.9791 9.33573 24.9791 8.78345C24.9791 8.23116 24.5314 7.78345 23.9791 7.78345V9.78345ZM21.7268 7.78345C21.1745 7.78345 20.7268 8.23116 20.7268 8.78345C20.7268 9.33573 21.1745 9.78345 21.7268 9.78345V7.78345ZM20.6285 15.9276C21.0165 16.3206 21.6497 16.3247 22.0427 15.9367C22.4357 15.5487 22.4398 14.9155 22.0518 14.5225L20.6285 15.9276ZM20.4616 12.9118C20.0736 12.5188 19.4404 12.5147 19.0474 12.9027C18.6544 13.2907 18.6503 13.9239 19.0383 14.3169L20.4616 12.9118ZM22.0537 3.04613C22.442 2.6534 22.4384 2.02024 22.0457 1.63193C21.6529 1.24363 21.0198 1.24721 20.6315 1.63994L22.0537 3.04613ZM19.0389 3.25065C18.6506 3.64337 18.6542 4.27653 19.0469 4.66484C19.4396 5.05314 20.0728 5.04956 20.4611 4.65683L19.0389 3.25065ZM16.9921 16.6569C16.9921 16.1047 16.5443 15.6569 15.9921 15.6569C15.4398 15.6569 14.9921 16.1047 14.9921 16.6569H16.9921ZM14.9921 17.9583C14.9921 18.5106 15.4398 18.9583 15.9921 18.9583C16.5443 18.9583 16.9921 18.5106 16.9921 17.9583H14.9921ZM14.9921 2.34303C14.9921 2.89532 15.4398 3.34303 15.9921 3.34303C16.5443 3.34303 16.9921 2.89532 16.9921 2.34303H14.9921ZM16.9921 1.04166C16.9921 0.489372 16.5443 0.0416565 15.9921 0.0416565C15.4398 0.0416565 14.9921 0.489372 14.9921 1.04166H16.9921ZM0.020813 6.24716C0.020813 6.79944 0.468528 7.24716 1.02081 7.24716C1.5731 7.24716 2.02081 6.79944 2.02081 6.24716H0.020813ZM2.02081 4.94578C2.02081 4.3935 1.5731 3.94578 1.02081 3.94578C0.468528 3.94578 0.020813 4.3935 0.020813 4.94578H2.02081ZM0.020813 14.0542C0.020813 14.6065 0.468528 15.0542 1.02081 15.0542C1.5731 15.0542 2.02081 14.6065 2.02081 14.0542H0.020813ZM2.02081 12.7528C2.02081 12.2005 1.5731 11.7528 1.02081 11.7528C0.468528 11.7528 0.020813 12.2005 0.020813 12.7528H2.02081ZM5.11218 12.892C4.57312 12.7719 4.03876 13.1116 3.91866 13.6507C3.79856 14.1897 4.13821 14.7241 4.67728 14.8442L5.11218 12.892ZM9.6834 15.9595C10.2225 16.0796 10.7568 15.7399 10.8769 15.2009C10.997 14.6618 10.6574 14.1274 10.1183 14.0073L9.6834 15.9595ZM23.9791 7.78345H21.7268V9.78345H23.9791V7.78345ZM22.0518 14.5225L20.4616 12.9118L19.0383 14.3169L20.6285 15.9276L22.0518 14.5225ZM20.6315 1.63994L19.0389 3.25065L20.4611 4.65683L22.0537 3.04613L20.6315 1.63994ZM14.9921 16.6569V17.9583H16.9921V16.6569H14.9921ZM16.9921 2.34303V1.04166H14.9921V2.34303H16.9921ZM2.02081 6.24716V4.94578H0.020813V6.24716H2.02081ZM2.02081 14.0542V12.7528H0.020813V14.0542H2.02081ZM4.67728 14.8442L9.6834 15.9595L10.1183 14.0073L5.11218 12.892L4.67728 14.8442Z" fill="white"/>
</svg>
