<svg width="30" height="26" viewBox="0 0 30 26" fill="none" xmlns="http://www.w3.org/2000/svg">
<path fill-rule="evenodd" clip-rule="evenodd" d="M25.6114 19.3868L25.6214 9.7318L18.7497 2.8818C16.676 0.817171 13.3235 0.817171 11.2497 2.8818L4.39307 9.71514V19.3818C4.39858 22.3055 6.7727 24.6714 9.6964 24.6668H20.3081C23.2298 24.6714 25.6031 22.3085 25.6114 19.3868Z" stroke="white" stroke-width="2" stroke-linecap="round" stroke-linejoin="round"/>
<path fill-rule="evenodd" clip-rule="evenodd" d="M17.5001 11.9418C17.4744 13.3162 16.344 14.412 14.9695 14.3949C13.595 14.3779 12.4921 13.2544 12.5005 11.8799C12.5089 10.5053 13.6255 9.39538 15.0001 9.39514C15.6693 9.4013 16.3087 9.67308 16.7775 10.1507C17.2464 10.6283 17.5063 11.2726 17.5001 11.9418V11.9418Z" stroke="white" stroke-width="2" stroke-linecap="round" stroke-linejoin="round"/>
<path d="M26.6332 2.60487C26.6339 2.05259 26.1869 1.60425 25.6346 1.60347C25.0823 1.6027 24.6339 2.04978 24.6332 2.60207L26.6332 2.60487ZM25.6232 9.7318L24.6232 9.7304C24.6228 9.99664 24.7286 10.252 24.9172 10.44L25.6232 9.7318ZM27.6272 13.1417C28.0183 13.5316 28.6514 13.5306 29.0414 13.1395C29.4313 12.7484 29.4303 12.1152 29.0392 11.7253L27.6272 13.1417ZM5.09919 10.4233C5.49031 10.0334 5.49128 9.40023 5.10136 9.00911C4.71143 8.61799 4.07827 8.61702 3.68715 9.00695L5.09919 10.4233ZM0.96048 11.7253C0.569359 12.1152 0.56839 12.7484 0.958316 13.1395C1.34824 13.5306 1.98141 13.5316 2.37253 13.1417L0.96048 11.7253ZM11.6665 18.5785C11.1142 18.5785 10.6665 19.0262 10.6665 19.5785C10.6665 20.1308 11.1142 20.5785 11.6665 20.5785V18.5785ZM18.3332 20.5785C18.8855 20.5785 19.3332 20.1308 19.3332 19.5785C19.3332 19.0262 18.8855 18.5785 18.3332 18.5785V20.5785ZM24.6332 2.60207L24.6232 9.7304L26.6232 9.73321L26.6332 2.60487L24.6332 2.60207ZM24.9172 10.44L27.6272 13.1417L29.0392 11.7253L26.3292 9.02361L24.9172 10.44ZM3.68715 9.00695L0.96048 11.7253L2.37253 13.1417L5.09919 10.4233L3.68715 9.00695ZM11.6665 20.5785H18.3332V18.5785H11.6665V20.5785Z" fill="white"/>
</svg>
